PathFileType	4	(X/Y/Z)	Kaydara	
DataRate	CameraRate	NumFrames	NumMarkers	Units	OrigDataRate	OrigDataStartFrame	OrigNumFrames	
120.00	120.00	4	72	mm	120.00	196	261	
Frame#	Time	Hips			RightUpLeg			RightLeg			RightFoot			RightFoot_End			LeftUpLeg			LeftLeg			LeftFoot			LeftFoot_End			Spine			Spine1			Spine2			Spine3			Neck			Head			Head_End			RightShoulder			RightArm			RightForeArm			RightHand			RightHandThumb1			RightHandThumb2			RightHandThumb3			RightHandThumb3_End			RightInHandIndex			RightHandIndex1			RightHandIndex2			RightHandIndex3			RightHandIndex3_End			RightInHandMiddle			RightHandMiddle1			RightHandMiddle2			RightHandMiddle3			RightHandMiddle3_End			RightInHandRing			RightHandRing1			RightHandRing2			RightHandRing3			RightHandRing3_End			RightInHandPinky			RightHandPinky1			RightHandPinky2			RightHandPinky3			RightHandPinky3_End			LeftShoulder			LeftArm			LeftForeArm			LeftHand			LeftHandThumb1			LeftHandThumb2			LeftHandThumb3			LeftHandThumb3_End			LeftInHandIndex			LeftHandIndex1			LeftHandIndex2			LeftHandIndex3			LeftHandIndex3_End			LeftInHandMiddle			LeftHandMiddle1			LeftHandMiddle2			LeftHandMiddle3			LeftHandMiddle3_End			LeftInHandRing			LeftHandRing1			LeftHandRing2			LeftHandRing3			LeftHandRing3_End			LeftInHandPinky			LeftHandPinky1			LeftHandPinky2			LeftHandPinky3			LeftHandPinky3_End			
		X1	Y1	Z1	X2	Y2	Z2	X3	Y3	Z3	X4	Y4	Z4	X5	Y5	Z5	X6	Y6	Z6	X7	Y7	Z7	X8	Y8	Z8	X9	Y9	Z9	X10	Y10	Z10	X11	Y11	Z11	X12	Y12	Z12	X13	Y13	Z13	X14	Y14	Z14	X15	Y15	Z15	X16	Y16	Z16	X17	Y17	Z17	X18	Y18	Z18	X19	Y19	Z19	X20	Y20	Z20	X21	Y21	Z21	X22	Y22	Z22	X23	Y23	Z23	X24	Y24	Z24	X25	Y25	Z25	X26	Y26	Z26	X27	Y27	Z27	X28	Y28	Z28	X29	Y29	Z29	X30	Y30	Z30	X31	Y31	Z31	X32	Y32	Z32	X33	Y33	Z33	X34	Y34	Z34	X35	Y35	Z35	X36	Y36	Z36	X37	Y37	Z37	X38	Y38	Z38	X39	Y39	Z39	X40	Y40	Z40	X41	Y41	Z41	X42	Y42	Z42	X43	Y43	Z43	X44	Y44	Z44	X45	Y45	Z45	X46	Y46	Z46	X47	Y47	Z47	X48	Y48	Z48	X49	Y49	Z49	X50	Y50	Z50	X51	Y51	Z51	X52	Y52	Z52	X53	Y53	Z53	X54	Y54	Z54	X55	Y55	Z55	X56	Y56	Z56	X57	Y57	Z57	X58	Y58	Z58	X59	Y59	Z59	X60	Y60	Z60	X61	Y61	Z61	X62	Y62	Z62	X63	Y63	Z63	X64	Y64	Z64	X65	Y65	Z65	X66	Y66	Z66	X67	Y67	Z67	X68	Y68	Z68	X69	Y69	Z69	X70	Y70	Z70	X71	Y71	Z71	X72	Y72	Z72	

196	1.625	3081.203	893.81699	129.612	3108.4787466448324	866.3496645201396	78.73805775617939	3022.1955876878724	460.72099904514425	46.82009187162078	3105.3428676010226	120.22117468394335	-68.79203202485365	3031.78632122666	23.07429815203846	70.748665668744	3064.8414323816683	894.7070945683461	194.592648731654	2955.932490937493	505.52128768582486	301.45332231610695	2845.442220975723	90.561474887493	388.30629960151174	2703.1195042495942	23.534887362624847	282.5798350382137	3036.2194232207794	1016.4683733175929	72.10687922029317	2984.0019332361426	1082.811701907066	24.282648219526827	2925.2838440627747	1147.093230653877	-26.938828209531447	2863.1011711279953	1200.8135262189767	-78.15686268218596	2795.540370141317	1258.876484713599	-130.93539174215041	2729.0494626414065	1308.6918155249566	-173.73358059769407	2589.7549199531604	1385.1150803317971	-180.63920065913484	2823.0525882845204	1234.0337264882362	-125.47382052130955	2839.377693304153	1214.1306491882692	-156.7585649982143	2916.412288238699	1088.5497412110117	-103.37356431941444	2934.368237857023	1015.7346665859873	-93.75988596522605	2940.6385093006384	1032.3490948585327	-99.08237775632989	2942.316607293001	1035.5687156552804	-105.74465068574509	2943.543803056062	1034.4284030928425	-109.3747135776402	2944.6169639934647	1030.5841641671448	-111.53730663354104	2942.0301122260553	1022.2099985746964	-95.5490524917881	2951.3306358974423	1017.5603124764581	-96.28323569019902	2954.5639732417394	1011.8580678618487	-98.9452930984167	2954.026893346607	1010.0752227878701	-102.54644426878603	2951.864157287412	1009.7882455058103	-106.83985195432996	2941.7117422347146	1013.054856355682	-92.87995028748857	2950.6119157226694	1003.5683710824793	-92.15172016020216	2954.063908518881	996.1500906346798	-94.70467631784138	2953.379357291294	993.4252339779603	-98.88048120076961	2950.9951491981374	992.8322252699996	-103.4961657993915	2941.284604696217	1006.7074074189645	-90.94719587880444	2948.99290113294	992.7014533055699	-88.534003862274	2951.9093532837	985.0281442326269	-90.40097333234644	2951.20001602536	981.7585544999157	-94.23865462934094	2948.9350186875417	980.897108203858	-98.48842554018563	2940.2461803629076	999.5105110993304	-88.92122905060833	2946.7968574344463	982.2327180431678	-85.36415340025731	2948.9543365091486	974.2654324584631	-86.31106561856015	2948.350884175814	970.9988394143671	-88.84515513822298	2946.294937806987	969.7282855237482	-92.45717448230613	2812.660333975201	1244.4436832705285	-100.85933037224251	2802.5158917257995	1239.6401865234504	-59.53238398786339	2887.241299643213	1111.4381390542812	-48.80663578184635	2934.66888831713	1024.8496895390062	-45.9144058731824	2937.6312589529384	1041.6148838938877	-53.331089248058376	2946.5082656160994	1043.6094255968735	-50.69861932583135	2953.626357330407	1041.6525598006558	-47.40234729086194	2960.3612473592125	1037.1589005260462	-43.40281062051862	2941.042920077609	1031.7777319354516	-49.407199758692954	2955.1919609916376	1027.2758797119993	-46.545899336528066	2966.191801456071	1020.8382033785502	-41.135170829255266	2971.803067959862	1018.0967211736454	-37.30811861079186	2975.6196433509654	1016.678050242084	-33.82802014492411	2943.151430700213	1022.6771164537375	-45.36507314430929	2958.092150136811	1013.3645615876053	-40.388836755524345	2970.328924268322	1005.1494506346613	-33.95631418084594	2977.2108794455153	1001.2707490215564	-29.08557454605252	2981.441432451472	999.4407855003287	-25.15446446788851	2944.2772545372122	1016.3732044490033	-42.60691326631308	2958.6362935746283	1002.586605216522	-35.8248720266027	2969.517321264723	994.2242039830361	-29.685815578503636	2976.269910108459	989.8445163763035	-24.704842934626548	2980.3019034621416	987.8213815411459	-20.8746098789053	2945.1867991864856	1009.1530280312813	-39.31718151402841	2958.9127993383213	992.0915846969976	-31.150204589127185	2967.899391696618	983.5799421697894	-25.432994105054927	2972.95704334208	979.5072331114021	-21.412243144650834	2976.60486523098	977.2096819250854	-17.796206789261824
197	1.633	3081.203	893.81699	129.612	3106.901682785622	865.4620690203791	78.22463252929984	3021.4052524087397	459.67263113852107	46.54091805439121	3105.693825116868	119.83254010151742	-70.61352476175036	3032.561386306633	22.46953935843628	68.93050462490939	3066.3869205656106	895.5695226554028	195.08300117277977	2957.2704053198645	506.5596584114178	302.4722572814573	2846.907717224338	91.17674908872341	387.722051118456	2704.993830840967	22.97544624164381	282.15639021632677	3036.5563570120207	1016.5864646788399	72.09231822000565	2984.442804946944	1083.1152038141224	24.40736537321666	2925.7868576139163	1147.5867460811182	-26.648631122076296	2863.591010499895	1201.4651342656807	-77.67606687857206	2796.05000861918	1259.703505146202	-130.28013267078148	2729.7478550028804	1309.791499829686	-173.0373703563981	2590.3979732724733	1386.0954760616648	-179.99478418559636	2823.2231325609105	1234.4101251150928	-124.90264987769504	2838.6799100741705	1213.7224728344843	-155.86412335524906	2911.8772605088793	1091.087795796654	-94.30924152015814	2925.962108321654	1018.4953817461957	-80.78882105940178	2931.8130335086075	1034.545605748641	-85.99368793066876	2933.0323718754894	1037.4910303799104	-92.03046775353639	2933.929363748035	1036.2226286200228	-95.1422835677192	2934.7180723053802	1032.3253818902112	-96.80213036679878	2933.120245222531	1024.5626199270548	-82.1735112850364	2941.643499258537	1019.5980216132749	-81.8953576865041	2944.375854669957	1013.7698907268192	-83.74488991237912	2943.618277372727	1011.9332074417742	-86.92747402421264	2941.3343900043883	1011.6181404706838	-90.93283320591168	2932.8016577088342	1015.5938400820377	-79.30970724845052	2940.943577608524	1005.900975826124	-77.48879232808281	2943.8514426569454	998.3710571953275	-79.13258144332987	2942.902088455353	995.5935909489517	-82.79258195007336	2940.3859147224343	994.9758504445731	-87.08783174507957	2932.393573008708	1009.385493898629	-77.26558505173186	2939.4370153258833	995.3135810875157	-73.77749352269954	2941.883005400433	987.5695978451429	-74.8307069307007	2940.920263845793	984.2634027723648	-78.15953267949897	2938.532139152478	983.3854027890794	-82.10264970360186	2931.4045883112976	1002.3627592546068	-75.13779105572489	2937.3735808361766	985.1297300622423	-70.5329118234365	2939.1631646885057	977.1476871875376	-70.79961948982843	2938.3791490621256	973.8746320396009	-72.94872434294749	2936.2165937923687	972.6010618807783	-76.28114027040759	2813.4903460277073	1245.6181332311019	-100.21447480905923	2804.407178392594	1242.6607350211696	-58.2114673136118	2886.671191154185	1113.0266172199233	-45.42388885937819	2932.8064602471823	1026.1110789468532	-43.31547662546638	2935.0565347180695	1042.8472133741916	-50.184558290969086	2943.0125898377155	1044.6453897601696	-47.58480731112685	2949.510125769441	1042.5513012511242	-44.32147634371583	2955.745474743222	1037.9428391826434	-40.35809107486522	2938.493234367063	1033.0221425143975	-46.18098638969481	2951.600442515741	1028.4213345853957	-42.683884316906614	2961.7906305175097	1021.8269282170264	-37.18243291190343	2966.915981346002	1018.94784235893	-33.53310639665172	2970.342132539034	1017.3881838869665	-30.358038158723378	2940.6905444264025	1023.9195052621174	-42.20532988750088	2954.6631442000767	1014.509361048871	-36.64480660763055	2966.031418698544	1006.1231696882325	-30.12455901682343	2972.334327539706	1002.0784277824094	-25.473650090800493	2976.141183333582	1000.0941865095666	-21.878927658523995	2941.9064775909596	1017.6175569864848	-39.50672430723786	2955.4784166701397	1003.7477481883205	-32.24211850051646	2965.6192956312807	995.2363204166134	-26.039082827728045	2971.8222911825346	990.6965189677891	-21.27678360818701	2975.460140311922	988.5283468607187	-17.765981560929717	2942.9438540506353	1010.3956631284942	-36.332662120555995	2956.0290485765627	993.2597294983905	-27.781996423125214	2964.452653200165	984.6292418844658	-22.035159428027715	2969.1237948084236	980.4399850062434	-18.184361002752123	2972.4307349828478	978.0140898527501	-14.857303601593784
198	1.642	3081.203	893.81699	129.612	3104.5307898644032	864.1980236808591	77.6719335625161	3019.8209763288614	458.2698495029926	46.125251717563096	3105.1402595192703	119.18898061016688	-72.8495556046413	3032.300228571004	21.50966664067186	66.40665764028526	3068.6880454073707	896.7913089608066	195.61196541342852	2959.2553343441728	507.8658848015082	303.12616776734694	2848.952498237982	92.07273113049432	386.76101729924443	2707.1949962698704	23.18885916033541	281.40508582233844	3037.1429488738345	1016.7670364984256	72.01123911925055	2985.247070113934	1083.5968438137988	24.49965512061126	2926.723960904287	1148.3494478995465	-26.360168827790144	2864.5080160786315	1202.3981987301534	-77.17441126780876	2796.974521472975	1260.822779904301	-129.575631965928	2730.828617996034	1311.179752727766	-172.2498180847324	2591.4738947736196	1387.4926834116663	-179.00655613008803	2823.8055491517102	1235.0882717712677	-124.29800090384462	2838.0487238550877	1213.1410059184263	-155.02350157268557	2908.3004707397413	1092.64358902032	-87.84409430864557	2919.651868671379	1020.0034410078791	-70.62507019156597	2925.1130909544568	1035.5818729238056	-75.67573308518001	2926.0092889615867	1038.279166764247	-81.02327413991253	2926.6920809043663	1036.8849323189675	-83.58989315580959	2927.3114885880395	1032.9229631719854	-84.73944638616781	2926.4133339434093	1025.7092814547832	-71.63625556836628	2934.414081580578	1020.4301385507005	-70.42149209321954	2936.8365186488445	1014.4615230004924	-71.4664244038228	2935.947459039126	1012.5666893547261	-74.19070901538336	2933.596017789403	1012.2231779613777	-77.84501010333474	2926.144953778001	1016.882915444926	-68.62042575084976	2933.8043779177056	1006.9602644306752	-65.80378323642137	2936.3824472821507	999.2969580426242	-66.55238239468176	2935.2784879227397	996.4588882037114	-69.65120131257213	2932.690355933383	995.8146699919978	-73.55831523088887	2925.7850954901087	1010.7826603947179	-66.49373854514596	2932.436297125465	996.5970278683968	-62.044349478729785	2934.6041751682023	988.7575035772685	-62.30127803609014	2933.4972644924896	985.4038528325888	-65.0802851988363	2931.0438297829	984.5061695887134	-68.65442183758248	2924.871388888978	1003.8979645254803	-64.29052034665919	2930.5249191687913	986.6437793491322	-58.760293332474504	2932.1080861665478	978.6180529252373	-58.3685366215048	2931.226788553475	975.3262614283937	-60.106527124046316	2929.0109141748653	974.0443934157241	-63.106287408402366	2814.7469461161704	1247.067741180986	-99.52352460063175	2806.6514491991124	1245.8933557157661	-56.76323566570563	2886.5453623943918	1114.8632572768527	-41.94555560880232	2932.9473781515003	1027.378092636287	-42.171059915836686	2934.3412895038236	1044.1859971201366	-48.28611129968458	2941.0971673769727	1045.7619481065383	-45.711605809772415	2946.786959920706	1043.495674661063	-42.51092758132623	2952.372932732808	1038.7287629450616	-38.63833226384383	2937.8297285335425	1034.3302333411496	-44.297457124175104	2949.6829671381156	1029.6184612803095	-40.17351066752707	2958.8418587399133	1022.8122795499196	-34.64966681885769	2963.3134125444053	1019.7504779084057	-31.22549504110985	2966.189890170528	1018.0051494611008	-28.398052410560176	2940.1394638437855	1025.1776683385474	-40.4858776376336	2952.949832227371	1015.6323234578896	-34.40257958163388	2963.211461888852	1007.0086448422743	-27.882097555061844	2968.7345642124146	1002.7403946812417	-23.51444559876073	2971.944341293306	1000.5515047969852	-20.305733401854162	2941.4683690180195	1018.8445052468819	-37.91515652417405	2954.101304612484	1004.8300352965688	-30.281256697583906	2963.2985596354006	996.1052738460755	-24.103619439338736	2968.760484924375	991.346514501441	-19.62814024390025	2971.842196921344	988.9843260102009	-16.486730103080756	2942.660109515977	1011.5801599447062	-34.93841231220985	2954.9840031291565	994.2894647568935	-26.156945952945236	2962.6887256127984	985.4788791454755	-20.47203108470328	2966.837099592261	981.1254332195201	-16.850556217103982	2969.6616193308973	978.5250911938816	-13.862296578792586
199	1.65	3081.203	893.81699	129.612	3101.9676985484025	862.8719949947736	77.19313002882086	3018.0633568347566	456.8255750515102	45.71578975508746	3104.3067383082653	118.64226961461176	-75.38395578313154	3031.906671771789	20.433927594217824	63.41476251744642	3071.1739688560056	898.076800943159	196.07596192174762	2961.385192902543	509.139152121138	303.30512779310004	2851.123417613086	92.95058783925522	385.45647631495416	2709.2669782734956	23.882056445394795	280.3541953831087	3037.7738602305635	1016.9321863168818	71.86856620008035	2986.1214207597727	1084.0700349483134	24.51464432691253	2927.747721528915	1149.104897382216	-26.163877422407847	2865.5085177755614	1203.3075125564972	-76.77505377478994	2797.9713829791954	1261.8970414883356	-128.9789990873556	2731.949847688808	1312.4939742795855	-171.55598376362707	2592.6399889129384	1388.9280796148726	-177.9145140713736	2824.469848586143	1235.7493145737717	-123.79073366994297	2837.2691440869357	1212.2312270282837	-154.29132557289867	2905.84716405704	1092.966210418272	-84.33436651292283	2915.6151909136947	1019.6650912540701	-64.03002277281698	2920.7739862575077	1034.945254543009	-68.85440852951834	2921.5743251957465	1037.459887169807	-73.49518722675265	2922.21676754142	1035.9587037595736	-75.53641291409046	2922.8251277426994	1031.9249071998338	-76.21956085709368	2922.123922876067	1025.1078899367355	-64.7083370049916	2929.910935333297	1019.545297182403	-62.71791064732446	2932.27659819078	1013.4329766063041	-63.04574149500978	2931.397798338397	1011.4836869298974	-65.3141131898578	2929.085575993048	1011.1186332865469	-68.58424989588188	2921.9391749537863	1016.3490310848663	-61.62076628982374	2929.4353371963066	1006.1864130561403	-58.00881088724624	2931.9632975351415	998.3761884173497	-57.96773852693376	2930.877398830223	995.4771668362498	-60.51307461110094	2928.3349419464116	994.8116859129686	-63.99816986394832	2921.643051373037	1010.3032363998927	-59.464618380662884	2928.2009151363472	995.948451401519	-54.2810746336053	2930.3374887565624	987.99137054836	-53.84363066809727	2929.2545684245697	984.5845001718955	-56.08552355344924	2926.8471939578544	983.6694646338416	-59.261322182433815	2920.815329171228	1003.4932048844729	-57.23865703903286	2926.4334909067397	986.1282414593128	-51.02559163058699	2928.011304598333	978.0254964116439	-50.071493045013796	2927.157040871459	974.7031662249938	-51.41465683903093	2924.98745638611	973.4106926979138	-54.059797575837656	2816.0747764310568	1248.4582043165842	-98.94792802048087	2808.916931476205	1248.9568447435784	-55.52070219449082	2886.6187896621327	1116.5694754674641	-38.580874294937445	2933.9298351267707	1028.0475739056938	-41.34392693747181	2934.5848926879953	1044.907831590535	-46.840291979440764	2940.2371125989075	1046.27023257811	-44.3648648393767	2945.1794406229506	1043.8341088219868	-41.28123711911799	2950.1603543726824	1038.9075240913537	-37.54733017543853	2938.1127484679087	1035.0017443592944	-42.89950717032311	2948.839014614839	1030.1253612593057	-38.374319489905304	2957.045465629134	1023.0944596209849	-32.932468699635976	2960.9028168208424	1019.8624609554503	-29.74953612552508	2963.2560316368945	1017.9556987471622	-27.25010743077811	2940.5111675117973	1025.792198867407	-39.24975871886399	2952.270335699669	1016.055507018613	-32.862531231571566	2961.5078107408417	1007.1794896338545	-26.45462709258301	2966.297169635533	1002.7024865908979	-22.38911254645613	2968.937936107737	1000.3352970352355	-19.544696502672736	2941.9331082509743	1019.423925428193	-36.800177212396	2953.7094631872105	1005.2102676466022	-28.98900793493243	2962.0311820620786	996.2585766319684	-22.93362712372128	2966.794443949573	991.294747503121	-18.762398684764825	2969.3454507925308	988.7631524930431	-15.96959450845198	2943.251950924246	1012.1164186444989	-34.001724092454765	2954.873632465188	994.6195451321012	-25.155934242939846	2961.9076895753988	985.6172008708666	-19.60736690618066	2965.5611778484677	981.1093204544557	-16.22641356492151	2967.9240511794214	978.356117711424	-13.557665872695614
